<svg xmlns="http://www.w3.org/2000/svg" xml:space="preserve" width="100%" height="100%" viewBox="0 0 501.129 501.129"><path fill="#c5d3dd" d="M119.842 287.959H8.156c-4.504 0-8.156-3.358-8.156-7.5s3.652-7.5 8.156-7.5h111.686c4.505 0 8.156 3.358 8.156 7.5s-3.651 7.5-8.156 7.5zm4.35 47.097H39.314c-4.504 0-8.156-3.358-8.156-7.5s3.652-7.5 8.156-7.5h84.879c4.504 0 8.156 3.358 8.156 7.5-.001 4.142-3.652 7.5-8.157 7.5zm16.983 39.355H89.668c-4.504 0-8.156-3.358-8.156-7.5s3.652-7.5 8.156-7.5h51.507c4.504 0 8.156 3.358 8.156 7.5s-3.651 7.5-8.156 7.5zm-9.37-133.549H46.926c-4.504 0-8.156-3.358-8.156-7.5s3.652-7.5 8.156-7.5h84.879c4.505 0 8.156 3.358 8.156 7.5 0 4.143-3.652 7.5-8.156 7.5zm16.983-39.355H97.281c-4.505 0-8.156-3.358-8.156-7.5s3.652-7.5 8.156-7.5h51.507c4.504 0 8.156 3.358 8.156 7.5s-3.652 7.5-8.156 7.5z" data-original="#c5d3dd" /><path fill="#fedf30" d="m220.684 148.001-38.135-44.356a7.5 7.5 0 0 0-10.577-.797l-23.735 20.406a7.504 7.504 0 0 0-.797 10.577l38.135 44.356a7.483 7.483 0 0 0 5.69 2.61 7.47 7.47 0 0 0 4.886-1.813l23.735-20.406a7.504 7.504 0 0 0 .798-10.577z" data-original="#fedf30" /><path fill="#d7aa02" d="m198.374 90.041-16.103-18.73a7.5 7.5 0 0 0-10.577-.797l-55.382 47.614a7.504 7.504 0 0 0-.797 10.577l16.103 18.73a7.482 7.482 0 0 0 5.69 2.61 7.47 7.47 0 0 0 4.886-1.813l55.382-47.614a7.504 7.504 0 0 0 .798-10.577z" data-original="#d7aa02" /><path fill="#fedf30" d="M468.812 128.377a7.5 7.5 0 0 0-2.589-5.123l-23.735-20.406a7.5 7.5 0 0 0-10.577.797l-38.135 44.356a7.501 7.501 0 0 0 .798 10.577l23.735 20.406a7.472 7.472 0 0 0 4.887 1.813 7.483 7.483 0 0 0 5.69-2.61l38.135-44.356a7.507 7.507 0 0 0 1.791-5.454z" data-original="#fedf30" /><path fill="#d7aa02" d="m498.15 118.128-55.383-47.614a7.469 7.469 0 0 0-5.454-1.792 7.5 7.5 0 0 0-5.123 2.589l-16.103 18.73a7.5 7.5 0 0 0 .798 10.576l55.383 47.614a7.5 7.5 0 0 0 10.577-.798l16.102-18.73a7.498 7.498 0 0 0-.797-10.575z" data-original="#d7aa02" /><path fill="#0055a3" d="M285.271 59.018h46.024v65.73h-46.024z" data-original="#0055a3" /><path fill="#0473ce" d="M336.502 16.958H251.94c-7.933 0-14.364 6.431-14.364 14.364v17.45c0 7.933 6.431 14.364 14.364 14.364h84.109l20.423-5.505V22.812z" data-original="#0473ce" /><path fill="#0055a3" d="M364.624 16.958h-30c7.933 0 14.364 6.431 14.364 14.364v17.45c0 7.933-6.431 14.364-14.364 14.364h30c7.933 0 14.364-6.431 14.364-14.364v-17.45c0-7.933-6.431-14.364-14.364-14.364z" data-original="#0055a3" /><path fill="#26a6fe" d="M258.813 477.718C155.871 450.397 94.568 344.797 121.889 241.855c22.029-83.003 94.95-138.935 176.335-143.167 19.55-1.016 190.659 30.368 190.659 186.741 0 114.582-104.523 205.402-195.602 198.191a193.876 193.876 0 0 1-34.468-5.902z" data-original="#26a6fe" /><path fill="#0593fc" d="M308.282 98.478c-5.048 0-10.05.196-15 .577 99.496 7.655 177.846 90.811 177.846 192.27s-78.351 184.615-177.846 192.27c4.95.381 9.952.577 15 .577 106.506 0 192.846-86.34 192.846-192.847S414.789 98.478 308.282 98.478z" data-original="#0593fc" /><circle cx="308.282" cy="291.325" r="150.18" fill="#fff3ef" data-original="#fff3ef" /><path fill="#f1f0f0" d="M327.688 142.404a150.54 150.54 0 0 0-34.581-.519c1.525.152 3.051.32 4.581.519 82.247 10.717 140.233 86.08 129.515 168.327-9.19 70.524-65.911 123.205-133.746 130.035 80.446 8.025 153.228-49.318 163.746-130.035 10.718-82.247-47.268-157.61-129.515-168.327z" data-original="#f1f0f0" /><path fill="#b6c4cf" d="M308.315 184.066a6.98 6.98 0 0 1-6.98-6.98v-19.284a6.98 6.98 0 1 1 13.96 0v19.284a6.98 6.98 0 0 1-6.98 6.98zm81.366 33.342a6.979 6.979 0 0 1-4.935-11.915l13.636-13.636a6.979 6.979 0 0 1 9.871 0 6.979 6.979 0 0 1-.001 9.871l-13.636 13.636a6.963 6.963 0 0 1-4.935 2.044zm53.241 81.111h-19.284a6.98 6.98 0 1 1 0-13.96h19.284a6.98 6.98 0 1 1 0 13.96zm-38.99 95.001a6.963 6.963 0 0 1-4.936-2.044L385.36 377.84a6.98 6.98 0 0 1 9.872-9.871l13.636 13.636a6.98 6.98 0 0 1-4.936 11.915zm-94.747 39.607a6.98 6.98 0 0 1-6.98-6.98v-19.285a6.98 6.98 0 1 1 13.96 0v19.285a6.98 6.98 0 0 1-6.98 6.98zm-95.002-38.991a6.952 6.952 0 0 1-4.935-2.045 6.98 6.98 0 0 1 0-9.871l13.636-13.636a6.98 6.98 0 1 1 9.871 9.871l-13.636 13.636a6.96 6.96 0 0 1-4.936 2.045zm-20.321-94.747h-19.284a6.98 6.98 0 1 1 0-13.96h19.284a6.98 6.98 0 1 1 0 13.96zm33.342-81.366a6.955 6.955 0 0 1-4.935-2.044l-13.636-13.636c-2.726-2.726-2.726-7.145 0-9.871s7.145-2.727 9.871 0l13.636 13.636a6.98 6.98 0 0 1-4.936 11.915z" data-original="#b6c4cf" /><path fill="#678d98" d="M308.283 287.959a7.5 7.5 0 0 1-7.5-7.5v-50.432c0-4.142 3.357-7.5 7.5-7.5s7.5 3.358 7.5 7.5v50.432a7.5 7.5 0 0 1-7.5 7.5zm63.102 72.221a7.476 7.476 0 0 1-5.304-2.197l-54.601-54.601a7.5 7.5 0 0 1 0-10.606 7.502 7.502 0 0 1 10.608 0l54.6 54.601a7.5 7.5 0 0 1-5.303 12.803z" data-original="#678d98" /><path fill="#3e5959" d="M309.285 305.65c-8.31 0-15.072-6.761-15.072-15.071s6.761-15.071 15.072-15.071c8.31 0 15.071 6.761 15.071 15.071s-6.761 15.071-15.071 15.071z" data-original="#3e5959" /></svg>