<svg id="icon" xmlns="http://www.w3.org/2000/svg" xml:space="preserve" viewBox="0 0 32 32"><path fill="currentColor" fill-rule="evenodd" d="M10.827 2a1 1 0 0 0-1 1v1.69H8.345c-2.757 0-5 2.243-5 5V25c0 2.757 2.243 5 5 5h15.31c2.757 0 5-2.243 5-5V9.69c0-2.757-2.243-5-5-5h-1.482V3a1 1 0 1 0-2 0v1.69h-8.346V3a1 1 0 0 0-1-1zm12.828 26H8.345c-1.655 0-3-1.346-3-3V12.965h21.31V25c0 1.654-1.345 3-3 3zm3-18.31v1.275H5.345V9.69c0-1.654 1.345-3 3-3h15.31c1.655 0 3 1.346 3 3z" /><path fill="currentColor" fill-rule="evenodd" d="M16.02 15.269h-.01c-.552 0-.995.447-.995 1s.453 1 1.005 1a1 1 0 1 0 0-2zm5.172 0h-.01c-.551 0-.995.447-.995 1s.454 1 1.005 1a1 1 0 1 0 0-2zm-10.345 0h-.01c-.552 0-.995.447-.995 1s.453 1 1.005 1a1 1 0 1 0 0-2zm5.173 4.214h-.01c-.552 0-.995.448-.995 1s.453 1 1.005 1a1 1 0 1 0 0-2zm5.172 0h-.01c-.551 0-.995.448-.995 1s.454 1 1.005 1a1 1 0 1 0 0-2zm-10.345 0h-.01c-.552 0-.995.448-.995 1s.453 1 1.005 1a1 1 0 1 0 0-2zm5.173 4.214h-.01c-.552 0-.995.448-.995 1s.453 1 1.005 1a1 1 0 1 0 0-2zm5.172 0h-.01c-.551 0-.995.448-.995 1s.454 1 1.005 1a1 1 0 1 0 0-2zm-10.345 0h-.01c-.552 0-.995.448-.995 1s.453 1 1.005 1a1 1 0 1 0 0-2z" /></svg>