<svg id="icon" xmlns="http://www.w3.org/2000/svg" xml:space="preserve" style="enable-background:new 0 0 512 512" viewBox="0 0 32 32"><path fill="currentColor" fill-rule="evenodd" d="M7.66 29a1 1 0 0 0 1 1h16.39a3.454 3.454 0 0 0 3.45-3.45V9.98a1 1 0 0 0-2 0v16.57c0 .8-.65 1.45-1.45 1.45H8.66a1 1 0 0 0-1 1zm5.27-14h-2.17a1 1 0 0 0 0 2h2.17a1 1 0 0 0 0-2z" /><path fill="currentColor" fill-rule="evenodd" d="M21.24 22.24a1 1 0 1 0 0-2h-4.82a1 1 0 1 0 0 2zM16 9.757h-5.243a1 1 0 0 0 0 2H16a1 1 0 0 0 0-2z" /><path fill="currentColor" fill-rule="evenodd" d="m28.293 2.293-3.685 3.685-4.074-3.717c-.185-.175-.432-.233-.674-.261H6.95A3.454 3.454 0 0 0 3.5 5.45s.018 21.43.042 21.594l-1.249 1.249a1 1 0 1 0 1.414 1.414l26-26a1 1 0 1 0-1.414-1.414zm-6.558 6.558a1.433 1.433 0 0 1-.875-1.311V5.266l2.333 2.127zM5.5 5.45c0-.8.65-1.45 1.45-1.45h11.91v3.54c0 1.133.554 2.142 1.413 2.773L5.5 25.086z" /></svg>