<svg id="icon" xmlns="http://www.w3.org/2000/svg" xml:space="preserve" viewBox="0 0 32 32" style="enable-background:new 0 0 512 512"><path fill="currentColor" fill-rule="evenodd" d="m26.005 11.756 1.366-1.366a1 1 0 1 0-1.414-1.414l-1.365 1.365a11.061 11.061 0 0 0-6.12-2.54v-.926h.916a1.48 1.48 0 0 0 1.48-1.479V3.48A1.48 1.48 0 0 0 19.387 2h-3.834c-.816 0-1.48.664-1.48 1.48v1.916a1.48 1.48 0 0 0 1.48 1.48h.917v.926a11.15 11.15 0 0 0-7.033 3.388 1 1 0 0 0 .033 1.414.993.993 0 0 0 .69.272c.264 0 .528-.1.724-.306a9.019 9.019 0 0 1 6.582-2.82l.004.001h.004c5.027.001 9.116 4.096 9.116 9.129 0 5.029-4.091 9.12-9.12 9.12-2.51 0-4.85-.999-6.588-2.812a.99.99 0 0 0-.722-.304.998.998 0 0 0-.692.274 1 1 0 0 0-.03 1.414A11.178 11.178 0 0 0 17.471 30c6.132 0 11.12-4.988 11.12-11.12a11.08 11.08 0 0 0-2.586-7.124zM16.075 4h2.792v.875h-2.792z"/><path fill="currentColor" fill-rule="evenodd" d="M17.471 19.875H21.5a1 1 0 0 0 0-2h-3.029v-3.207a1 1 0 0 0-2 0v4.207a1 1 0 0 0 1 1zm-4.186-1a1 1 0 0 0-1-1H6.409a1 1 0 0 0 0 2h5.876a1 1 0 0 0 1-1zm-2-4a1 1 0 0 0-1-1H4.409a1 1 0 0 0 0 2h5.876a1 1 0 0 0 1-1zm0 8a1 1 0 0 0-1-1H4.409a1 1 0 0 0 0 2h5.876a1 1 0 0 0 1-1z"/></svg>